<?xml version="1.0" standalone="no"?>
<!DOCTYPE svg PUBLIC "-//W3C//DTD SVG 20010904//EN"
 "http://www.w3.org/TR/2001/REC-SVG-20010904/DTD/svg10.dtd">
<svg version="1.0" xmlns="http://www.w3.org/2000/svg"
 width="512.000000pt" height="512.000000pt" viewBox="0 0 512.000000 512.000000"
 preserveAspectRatio="xMidYMid meet">
<metadata>
Created by potrace 1.14, written by Peter Selinger 2001-2017
</metadata>
<g transform="translate(0.000000,512.000000) scale(0.100000,-0.100000)"
fill="#000000" stroke="none">
<path d="M640 4480 l0 -210 2025 0 2025 0 0 210 0 210 -2025 0 -2025 0 0 -210z"/>
<path d="M640 3840 l0 -210 2025 0 2025 0 0 210 0 210 -2025 0 -2025 0 0 -210z"/>
<path d="M640 3200 l0 -210 2025 0 2025 0 0 210 0 210 -2025 0 -2025 0 0 -210z"/>
<path d="M640 2560 l0 -210 1609 0 c1052 0 1627 -4 1662 -10 182 -35 320 -177
350 -359 28 -176 -73 -366 -235 -442 -91 -43 -149 -49 -461 -49 l-280 0 140
140 140 140 -150 150 -150 150 -395 -395 -395 -395 395 -395 395 -395 150 150
150 150 -140 140 -140 140 330 0 c361 0 400 5 540 59 107 41 195 100 286 190
123 123 200 264 235 431 18 84 18 256 0 340 -65 305 -283 545 -586 647 l-85
28 -1682 3 -1683 2 0 -210z"/>
<path d="M640 1920 l0 -210 745 0 745 0 0 210 0 210 -745 0 -745 0 0 -210z"/>
<path d="M640 1280 l0 -210 745 0 745 0 0 210 0 210 -745 0 -745 0 0 -210z"/>
<path d="M640 640 l0 -210 745 0 745 0 0 210 0 210 -745 0 -745 0 0 -210z"/>
</g>
</svg>
